<svg width="470" height="496" viewBox="0 0 470 496" fill="none" xmlns="http://www.w3.org/2000/svg">
<circle cx="235" cy="260" r="235" fill="#62D7E7"/>
<path d="M255 212H333V473H255V212Z" fill="#4C2E71"/>
<path d="M157 264H234V482H157V264Z" fill="#4C2E71"/>
<path d="M352 307H430V392H352V307Z" fill="#4C2E71"/>
<path d="M58 127H137V415H58V127Z" fill="#4C2E71"/>
<path d="M144.553 101.938C144.243 103.565 145.31 105.136 146.938 105.447L173.459 110.508C175.086 110.819 176.658 109.751 176.968 108.124C177.279 106.496 176.211 104.925 174.584 104.615L151.009 100.116L155.508 76.541C155.819 74.9135 154.751 73.3424 153.124 73.0318C151.496 72.7212 149.925 73.7888 149.614 75.4163L144.553 101.938ZM400.317 210.983C401.688 211.913 403.554 211.555 404.483 210.183L419.631 187.833C420.561 186.461 420.203 184.596 418.831 183.666C417.459 182.737 415.594 183.095 414.665 184.467L401.2 204.334L381.333 190.869C379.961 189.939 378.096 190.297 377.166 191.669C376.237 193.04 376.595 194.906 377.966 195.835L400.317 210.983ZM149.186 104.981C158.435 98.6967 176.775 91.858 199.813 87.7743C222.766 83.7055 250.054 82.4318 277.06 87.0201C304.059 91.6071 330.67 102.032 352.443 121.272C374.186 140.484 391.291 168.649 399.054 209.066L404.946 207.934C396.959 166.351 379.252 136.954 356.416 116.775C333.611 96.6239 305.878 85.8303 278.065 81.1049C250.259 76.3806 222.265 77.7007 198.765 81.8664C175.35 86.017 156.065 93.0534 145.814 100.019L149.186 104.981Z" fill="#4C2E71"/>
<path d="M137 473.72V412H98L58.5 408V413.5V415L64 421.5L74.5 432L84.5 440.5L95 449L115 462.5L126 468.5L137 473.72Z" fill="#4C2E71"/>
<path d="M234 482H158C163 486 205.5 496 234 495.5V482Z" fill="#4C2E71"/>
<path d="M255 494V473H333V473.5L330 475L325.5 477L316.5 480.5L296 487.5L291 488.5L286 489.5L276 491.5L265.5 493L261.5 493.5L259 494H257.5H255Z" fill="#4C2E71"/>
<path d="M352 464V392H429.5L426.5 397L423 402L415 411.5L407 421L398 430L387.5 439.5L376.5 448.5L364.5 457L358.5 460.5L355 462.5L353.5 463.5L352 464Z" fill="#4C2E71"/>
</svg>
