<svg width="470" height="490" role="img" viewBox="0 0 470 490" fill="none" xmlns="http://www.w3.org/2000/svg">
<circle cx="235" cy="254" r="235" fill="#3A9CB0"/>
<path d="M255 206H333V467H255V206Z" fill="#4C2E71"/>
<path d="M157 258H234V476H157V258Z" fill="#4C2E71"/>
<path d="M352 301H430V386H352V301Z" fill="#4C2E71"/>
<path d="M58 121H137V409H58V121Z" fill="#4C2E71"/>
<path d="M121.74 95.7741C121.15 97.0223 121.683 98.5126 122.931 99.1029L143.271 108.722C144.519 109.312 146.01 108.779 146.6 107.531C147.19 106.283 146.657 104.792 145.409 104.202L127.329 95.6517L135.879 77.5716C136.47 76.3235 135.936 74.8331 134.688 74.2428C133.44 73.6525 131.95 74.1858 131.359 75.434L121.74 95.7741ZM390.699 215.687C391.919 216.334 393.432 215.868 394.078 214.648L404.609 194.765C405.256 193.545 404.79 192.032 403.57 191.386C402.35 190.74 400.837 191.205 400.191 192.425L390.83 210.099L373.156 200.738C371.936 200.091 370.423 200.557 369.776 201.777C369.13 202.997 369.595 204.51 370.815 205.156L390.699 215.687ZM124.842 99.1967C160.689 86.3691 216.378 80.6364 268.353 95.4155C320.199 110.158 368.281 145.271 389.479 214.213L394.258 212.743C372.483 141.925 322.919 105.734 269.72 90.6062C216.648 75.5148 159.889 81.3448 123.158 94.4891L124.842 99.1967Z" fill="#4C2E71"/>
<path d="M137 467.72V406H98L58.5 402V407.5V409L64 415.5L74.5 426L84.5 434.5L95 443L115 456.5L126 462.5L137 467.72Z" fill="#4C2E71"/>
<path d="M234 476H158C163 480 205.5 490 234 489.5V476Z" fill="#4C2E71"/>
<path d="M255 488V467H333V467.5L330 469L325.5 471L316.5 474.5L296 481.5L291 482.5L286 483.5L276 485.5L265.5 487L261.5 487.5L259 488H257.5H255Z" fill="#4C2E71"/>
<path d="M352 458V386H429.5L426.5 391L423 396L415 405.5L407 415L398 424L387.5 433.5L376.5 442.5L364.5 451L358.5 454.5L355 456.5L353.5 457.5L352 458Z" fill="#4C2E71"/>
</svg>
